HIERARCHY
ROOT Hips
{
     OFFSET 45.49400 96.95440 -62.39730
     CHANNELS 6 Xposition Yposition Zposition Zrotation Xrotation Yrotation
     JOINT Spine
     {
          OFFSET 0.00000 11.89050 0.00000
          CHANNELS 3 Zrotation Xrotation Yrotation
          JOINT Spine1
          {
               OFFSET 0.00000 25.65740 0.12766
               CHANNELS 3 Zrotation Xrotation Yrotation
               JOINT HEad
               {
                    OFFSET 0.00000 8.73416 0.01134
                    CHANNELS 3 Zrotation Xrotation Yrotation
                    End Site
                    {
                         OFFSET -0.29000 12.77420 2.51395
                    }
               }
               JOINT LeftShoulder1
               {
                    OFFSET 8.99000 -0.36225 -0.22000
                    CHANNELS 3 Zrotation Xrotation Yrotation
                    JOINT LeftArm
                    {
                         OFFSET 10.28270 -0.00338 0.32212
                         CHANNELS 3 Zrotation Xrotation Yrotation
                         JOINT LeftForeArm
                         {
                              OFFSET 32.76690 0.09914 -1.42434
                              CHANNELS 3 Zrotation Xrotation Yrotation
                              JOINT LeftHand
                              {
                                   OFFSET 27.56430 0.08536 1.02216
                                   CHANNELS 3 Zrotation Xrotation Yrotation
                                   End Site
                                   {
                                        OFFSET 16.74430 -0.60000 1.50291
                                   }
                              }
                         }
                    }
               }
               JOINT RightShoulder
               {
                    OFFSET -8.99000 -0.36225 -0.22000
                    CHANNELS 3 Zrotation Xrotation Yrotation
                    JOINT RightArm
                    {
                         OFFSET -10.28270 -0.00338 0.32212
                         CHANNELS 3 Zrotation Xrotation Yrotation
                         JOINT RightForeArm
                         {
                              OFFSET -32.89710 0.09914 -1.42434
                              CHANNELS 3 Zrotation Xrotation Yrotation
                              JOINT RightHand
                              {
                                   OFFSET -27.49210 0.08536 1.02216
                                   CHANNELS 3 Zrotation Xrotation Yrotation
                                   End Site
                                   {
                                        OFFSET -16.63120 -0.60000 1.50291
                                   }
                              }
                         }
                    }
               }
          }
     }
     JOINT LeftUpLeg
     {
          OFFSET 8.94580 -8.66707 0.10165
          CHANNELS 3 Zrotation Xrotation Yrotation
          JOINT LeftLeg
          {
               OFFSET 0.00000 -44.42270 1.37270
               CHANNELS 3 Zrotation Xrotation Yrotation
               JOINT LeftFoot
               {
                    OFFSET -0.25355 -42.09240 -1.46059
                    CHANNELS 3 Zrotation Xrotation Yrotation
                    JOINT LeftToes
                    {
                         OFFSET -0.04000 -4.41509 8.49910
                         CHANNELS 3 Zrotation Xrotation Yrotation
                         End Site
                         {
                              OFFSET 0.08000 -0.04745 9.77979
                         }
                    }
               }
          }
     }
     JOINT RightUpLeg
     {
          OFFSET -8.94580 -8.66707 0.10165
          CHANNELS 3 Zrotation Xrotation Yrotation
          JOINT RightLeg
          {
               OFFSET 0.00000 -44.42270 1.37270
               CHANNELS 3 Zrotation Xrotation Yrotation
               JOINT RightFoot
               {
                    OFFSET 0.25355 -42.09240 -1.46059
                    CHANNELS 3 Zrotation Xrotation Yrotation
                    JOINT RightToes
                    {
                         OFFSET 0.04000 -4.41509 8.49910
                         CHANNELS 3 Zrotation Xrotation Yrotation
                         End Site
                         {
                              OFFSET -0.08000 -0.13745 9.77979
                         }
                    }
               }
          }
     }
}
MOTION
Frames: 12
Frame Time: 0.01667
45.49400 96.95440 -62.39730 -3.02140 -1.90128 -51.71480 3.02154 2.93504 1.77889 8.53696 5.74832 2.80405 -10.67390 -2.95980 20.40540 -0.00000 -0.00000 0.00000 -145.49699 -41.84880 -135.97400 -15.47340 54.94950 -85.06670 26.27240 5.21270 -16.29800 -3.54028 0.25502 7.39282 79.46690 4.69727 96.41250 16.19520 21.31870 71.49460 -11.75860 9.20208 3.00360 10.21140 -11.75920 -15.13390 -5.71031 17.25530 33.17430 -25.63570 0.69901 1.88033 9.68877 -8.61650 -62.51180 -14.01960 7.54362 -19.88690 -4.26893 15.39400 6.79011 21.63700 -11.32150 0.51241 0.61349 -14.42170 35.63380 
45.63800 97.07420 -61.73550 -2.74639 -1.86675 -51.57290 2.86092 2.87325 2.04566 8.45081 5.62726 3.31232 -10.79240 -3.10898 19.80960 -0.00000 -0.00000 0.00000 -143.19200 -41.80540 -135.00301 -14.82470 53.82350 -85.24310 26.02500 5.25789 -16.30640 -3.74409 0.24244 7.74235 80.42780 4.58665 96.78500 16.06130 21.00940 71.24850 -11.45650 9.19993 3.23364 9.56234 -11.86790 -15.39890 -5.57821 17.33330 33.31510 -26.09960 0.27954 1.82181 10.05880 -7.67014 -62.86530 -14.50170 7.73628 -19.74740 -3.75421 14.96750 5.37709 21.87240 -10.67100 0.39687 0.51775 -14.19460 35.64610 
45.76580 97.21270 -61.11030 -2.48301 -1.74995 -51.55840 2.73999 2.82170 2.32970 8.40818 5.53439 3.86071 -10.96970 -3.29759 19.21600 -0.00000 -0.00000 0.00000 -141.63000 -41.69360 -134.46001 -14.20960 53.10060 -85.63150 25.85430 5.28680 -16.32220 -3.91016 0.23405 8.32206 81.46560 4.42938 96.92390 15.98290 20.99130 71.27560 -11.23300 9.20047 3.38896 9.05827 -11.91660 -15.72690 -5.50173 17.25430 33.62230 -26.61280 -0.18627 1.75254 10.49400 -6.50017 -63.11570 -14.90740 7.76216 -19.80680 -3.25776 14.72480 3.91731 22.23720 -10.03610 0.28454 0.36024 -13.82620 35.75700 
45.87890 97.35900 -60.53570 -2.25617 -1.57232 -51.62250 2.66356 2.78591 2.60036 8.40467 5.47831 4.38832 -11.11140 -3.55828 18.67230 -0.00000 -0.00000 0.00000 -140.81500 -41.50430 -134.34801 -13.67420 52.76290 -86.15980 25.77600 5.29267 -16.36170 -4.01981 0.23093 9.10091 82.55360 4.23384 96.83680 15.96170 21.23670 71.55200 -11.09460 9.20259 3.46864 8.69590 -11.90640 -16.00810 -5.44417 17.05440 33.92930 -27.09050 -0.66784 1.67294 10.94030 -5.25093 -63.25090 -15.23640 7.61719 -20.05390 -2.80997 14.80020 2.48789 22.71130 -9.46726 0.18291 0.15187 -13.34340 35.93570 
45.98110 97.50440 -60.02440 -2.08936 -1.36499 -51.69870 2.63507 2.77122 2.82965 8.43388 5.46659 4.83880 -11.12020 -3.93423 18.22580 -0.00000 -0.00000 0.00000 -140.67900 -41.21460 -134.60201 -13.28200 52.75880 -86.72360 25.79910 5.26808 -16.44970 -4.06181 0.23428 10.00890 83.65750 4.01494 96.53890 15.98220 21.70870 72.04690 -11.04640 9.20506 3.47754 8.45494 -11.84010 -16.19700 -5.38028 16.77110 34.12630 -27.45290 -1.10940 1.59167 11.33770 -4.09027 -63.27660 -15.48980 7.31636 -20.45080 -2.46139 15.30550 1.20769 23.23730 -9.00754 0.09905 -0.08079 -12.80770 36.12990 
46.07560 97.64210 -59.58470 -2.00041 -1.16008 -51.72200 2.65776 2.78097 2.99678 8.48878 5.50300 5.17020 -10.93800 -4.44538 17.91020 -0.00000 -0.00000 0.00000 -141.09399 -40.80340 -135.10600 -13.09620 53.01070 -87.20770 25.92390 5.20747 -16.60890 -4.03369 0.24512 10.95670 84.73700 3.78842 96.05750 16.02690 22.35360 72.71000 -11.08630 9.20637 3.43275 8.30938 -11.72410 -16.30420 -5.30753 16.44300 34.16890 -27.63720 -1.45766 1.51964 11.63420 -3.17281 -63.20850 -15.66740 6.89219 -20.93900 -2.27528 16.29110 0.21939 23.73370 -8.67202 0.03617 -0.29553 -12.31480 36.29130 
46.16280 97.76640 -59.22010 -1.99515 -0.98652 -51.64400 2.72669 2.81532 3.09102 8.55987 5.58534 5.36029 -10.57280 -5.06006 17.73410 -0.00000 -0.00000 0.00000 -141.89500 -40.26610 -135.71899 -13.16020 53.43170 -87.51320 26.14000 5.10960 -16.84980 -3.93671 0.26427 11.85700 85.74460 3.56787 95.43400 16.08570 23.09560 73.46590 -11.19840 9.20510 3.36351 8.23265 -11.56730 -16.36890 -5.24106 16.10240 34.06220 -27.60630 -1.67719 1.46548 11.79660 -2.60732 -63.06730 -15.77020 6.39525 -21.44510 -2.30499 17.71390 -0.35313 24.11600 -8.43328 -0.01019 -0.44364 -11.97580 36.39530 
46.23930 97.87170 -58.92940 -2.06598 -0.86677 -51.43930 2.82803 2.87052 3.11181 8.63397 5.70449 5.40698 -10.09790 -5.69164 17.67770 -0.00000 -0.00000 0.00000 -142.91600 -39.62110 -136.30901 -13.48190 53.94530 -87.58440 26.42600 4.97964 -17.16340 -3.77043 0.29258 12.64000 86.62680 3.36441 94.72190 16.15730 23.84060 74.22210 -11.35340 9.20018 3.30454 8.19884 -11.38590 -16.42740 -5.20058 15.78460 33.83080 -27.35950 -1.76078 1.43207 11.81650 -2.43728 -62.87800 -15.80350 5.89081 -21.88960 -2.56591 19.43760 -0.44995 24.32010 -8.22865 -0.05188 -0.48350 -11.88670 36.44100 
46.29990 97.95180 -58.70800 -2.19322 -0.81548 -51.10560 2.93986 2.93956 3.06739 8.69483 5.84543 5.32529 -9.62341 -6.22345 17.69890 -0.00000 -0.00000 0.00000 -144.01900 -38.90660 -136.77901 -14.02770 54.49770 -87.42210 26.75070 4.82951 -17.52070 -3.53367 0.33056 13.26250 87.33450 3.18702 93.98010 16.24510 24.49360 74.88670 -11.51570 9.19127 3.28456 8.18185 -11.20230 -16.49110 -5.19602 15.52770 33.49480 -26.93470 -1.72639 1.41694 11.71040 -2.63722 -62.67140 -15.78030 5.45104 -22.19900 -3.01628 21.26280 -0.10480 24.32510 -7.98503 -0.10321 -0.39303 -12.09980 36.43970 
46.33930 98.00190 -58.54960 -2.35038 -0.83807 -50.65880 3.03865 3.01355 2.97257 8.72670 5.99024 5.14298 -9.25814 -6.54946 17.74920 -0.00000 -0.00000 0.00000 -145.10899 -38.17230 -137.07500 -14.72680 55.06030 -87.08000 27.07640 4.67638 -17.87940 -3.23147 0.37743 13.70830 87.83800 3.04137 93.26660 16.35090 24.98120 75.38920 -11.65560 9.17894 3.31695 8.15683 -11.04180 -16.54180 -5.22093 15.36800 33.06090 -26.40090 -1.60785 1.41475 11.51360 -3.12612 -62.48360 -15.72100 5.14325 -22.32090 -3.55955 22.97340 0.55433 24.16710 -7.65180 -0.17338 -0.17695 -12.60550 36.40910 
46.35460 98.01930 -58.44700 -2.51071 -0.93012 -50.12900 3.10622 3.08363 2.84660 8.71900 6.12176 4.89662 -9.08000 -6.60826 17.78780 -0.00000 -0.00000 0.00000 -146.12601 -37.46970 -137.19000 -15.48830 55.62310 -86.64480 27.36510 4.53951 -18.19350 -2.88135 0.43025 13.98430 88.13810 2.92656 92.63200 16.47330 25.27000 75.69450 -11.75800 9.16455 3.39606 8.10393 -10.92760 -16.54240 -5.25527 15.33440 32.52760 -25.84240 -1.44378 1.42019 11.26930 -3.79441 -62.35030 -15.65010 5.01751 -22.23370 -4.06962 24.38420 1.33563 23.93520 -7.22711 -0.26122 0.13324 -13.33150 36.37620 
46.34570 98.00390 -58.39310 -2.65213 -1.07883 -49.55700 3.13279 3.14266 2.71125 8.66936 6.22681 4.62777 -9.12464 -6.39510 17.78890 -0.00000 -0.00000 0.00000 -147.03999 -36.84770 -137.14900 -16.22110 56.18040 -86.20920 27.58500 4.43590 -18.42490 -2.51466 0.48396 14.11540 88.26830 2.83315 92.11600 16.60800 25.37160 75.80670 -11.82520 9.14996 3.50067 8.01221 -10.87750 -16.45670 -5.27586 15.44460 31.90210 -25.33930 -1.26980 1.42941 11.01710 -4.53348 -62.29920 -15.59210 5.09679 -21.94970 -4.42831 25.37360 2.03591 23.74090 -6.76377 -0.35538 0.48848 -14.16350 36.37980 
